<svg xmlns="http://www.w3.org/2000/svg" viewBox="0 0 32 32" width="32" height="32">
  <defs>
    <linearGradient id="deepBlue" x1="0%" y1="0%" x2="100%" y2="100%">
      <stop offset="0%" style="stop-color:#001f3f;stop-opacity:1" />
      <stop offset="100%" style="stop-color:#003366;stop-opacity:1" />
    </linearGradient>
    <linearGradient id="silver" x1="0%" y1="0%" x2="100%" y2="100%">
      <stop offset="0%" style="stop-color:#c0c0c0;stop-opacity:1" />
      <stop offset="100%" style="stop-color:#e8e8e8;stop-opacity:1" />
    </linearGradient>
    <linearGradient id="neonGreen" x1="0%" y1="0%" x2="100%" y2="100%">
      <stop offset="0%" style="stop-color:#00ff88;stop-opacity:1" />
      <stop offset="100%" style="stop-color:#00cc66;stop-opacity:1" />
    </linearGradient>
  </defs>
  
  <rect width="32" height="32" fill="#f8f9fa"/>
  
  <g transform="translate(16, 16)">
    <!-- 简化的立方体 -->
    <!-- 顶面 -->
    <path d="M -8,-6 L 8,-6 L 12,0 L 0,0 Z" 
          fill="url(#silver)" 
          fill-opacity="0.3" 
          stroke="#c0c0c0" 
          stroke-width="0.5"/>
    
    <!-- 左面 -->
    <path d="M -8,-6 L 0,0 L 0,12 L -8,6 Z" 
          fill="url(#deepBlue)" 
          fill-opacity="0.3" 
          stroke="#001f3f" 
          stroke-width="0.5"/>
    
    <!-- 右面 -->
    <path d="M 8,-6 L 12,0 L 12,12 L 8,6 Z" 
          fill="url(#deepBlue)" 
          fill-opacity="0.3" 
          stroke="#001f3f" 
          stroke-width="0.5"/>
    
    <!-- 发光边缘 -->
    <path d="M -8,-6 L 8,-6 L 12,0 L 12,12 L 8,6 L 0,12 L -8,6 L 0,0 Z" 
          fill="none" 
          stroke="url(#neonGreen)" 
          stroke-width="1"/>
    
    <!-- 中心点 -->
    <circle cx="0" cy="0" r="1.5" fill="url(#neonGreen)"/>
  </g>
</svg>